<svg width="216" height="50" viewBox="0 0 216 50" fill="none" xmlns="http://www.w3.org/2000/svg">
<g clip-path="url(#clip0_2010_422)">
<path d="M51.8723 28.8302L58.5183 26.3266L58.0626 21.4862L51.267 19.1476L44.7639 21.4862L44.9033 25.9746L42.8087 26.6651L40 25.4745L37.1692 26.6736L35.095 26.0001L35.2344 21.4845L28.7312 19.1459L21.9356 21.4845L21.48 26.3249L28.126 28.8285L32.2166 27.3556L35.9553 30.5871L35.9026 33.538L37.851 34.4003L38.3746 36.1623L31.4379 38.5962L31.2271 44.8262L40 48.0577L48.7729 44.8262L48.5621 38.5962L41.6254 36.1623L42.149 34.4003L44.0974 33.538L44.0447 30.5973L47.8242 27.3709L51.874 28.8285L51.8723 28.8302ZM47.7052 22.522L51.3963 21.1817L55.254 22.522L55.4733 25.2551L51.738 26.6481L49.5754 25.8776L52.3314 23.5237L47.8157 25.0136L47.7052 22.5203V22.522ZM28.2637 26.6481L24.5284 25.2551L24.7477 22.522L28.6054 21.1817L32.2965 22.522L32.1826 25.0578L27.9713 23.6904L30.4807 25.8589L28.2637 26.6498V26.6481ZM44.8608 39.9279L44.9288 43.4468L40 45.2429L35.0712 43.4468L35.1392 39.9279L39.0802 38.5315L40 41.6236L40.9198 38.5315L44.8608 39.9279Z" fill="#2B92E6"/>
<path d="M79.3403 32.4427C78.6008 28.4509 77.2593 24.6683 75.4129 21.1902L75.3823 21.2106L77.0655 29.57L79.3386 32.4444L79.3403 32.4427ZM38.6569 0.00340159C33.8012 0.163276 29.1665 1.18035 24.8974 2.90666L29.4606 3.24682L38.6569 0.00340159ZM54.9377 2.83863C50.6941 1.14464 46.0917 0.14967 41.2717 0L50.468 3.24342L54.936 2.83863H54.9377ZM17.2619 20.4368L11.4932 16.8685L6.27534 21.277L4.57857 29.701L8.42606 34.2523L16.1364 29.7979L17.2619 20.4368ZM67.5088 15.4483L65.455 9.04823C63.1972 7.19777 60.7285 5.59052 58.095 4.26219L51.3113 4.87618L52.2719 12.7254L61.5412 19.1374L67.5071 15.4466L67.5088 15.4483ZM14.4039 9.16559L12.4249 15.4466L18.4282 19.1595L27.6669 12.7679L28.6258 4.88979L21.6874 4.37445C19.0794 5.70787 16.6396 7.31852 14.4056 9.16729L14.4039 9.16559ZM73.6618 21.2787L68.4439 16.8702L62.6752 20.4385L63.8007 29.7996L71.511 34.254L75.3585 29.7027L73.6618 21.2787ZM0.170017 36.0058C0.0595061 37.2066 0 38.421 0 39.649C0 41.1508 0.0867089 42.6339 0.251626 44.0931L3.14702 47.8111L7.38556 44.4554V35.6555L3.70298 31.2997L0.170017 36.0058ZM39.9677 1.34363L30.3549 4.73331L29.4283 12.3495L40 15.9756L50.5173 12.3682L49.5822 4.73331L39.9677 1.34363ZM70.8497 35.8358L62.7143 31.1365L53.9873 36.3239V44.8364L62.8469 50L70.9687 44.5455H70.8497V35.8358ZM79.8096 35.7779L76.2511 31.281L72.5515 35.6572V44.4061L76.8547 47.8128L79.7501 44.0948C79.9133 42.6356 80.0017 41.1542 80.0017 39.6507C80.0017 38.3444 79.9354 37.0535 79.8113 35.7779H79.8096ZM9.08573 35.8358V44.5455H9.03133L17.1531 50L26.0127 44.8364V36.3239L17.2534 31.1178L9.08573 35.8358ZM10.6771 15.331L11.9148 11.4055C9.39006 13.8751 7.19514 16.6729 5.40145 19.7326L5.44056 19.7581L10.6788 15.331H10.6771ZM74.4965 19.7564L74.5798 19.7003C72.759 16.6032 70.5266 13.7713 67.9577 11.2814L69.2566 15.3293L74.4965 19.7564ZM4.53947 21.2804C2.70158 24.7636 1.36864 28.5513 0.639265 32.5464L2.86819 29.5785L4.53947 21.2787V21.2804Z" fill="url(#paint0_linear_2010_422)"/>
</g>
<path d="M99.8297 27.5474V26.2469C99.8297 24.4855 99.061 23.4451 97.5219 23.1255L93.4842 22.3247C93.0332 22.2312 92.8085 21.932 92.8085 21.4237V20.0823C92.8085 19.5094 93.1007 19.222 93.6836 19.222H99.431V17.9215L98.2568 17H93.6228C91.4637 17 90.3825 18.0881 90.3825 20.2625V21.3625C90.3825 23.1374 91.1512 24.1778 92.6902 24.4838L96.7279 25.305C97.179 25.3985 97.4037 25.6994 97.4037 26.2061V27.7276C97.4037 28.3023 97.1114 28.5879 96.5286 28.5879H90.3825V29.8885L91.5566 30.8099H96.5877C98.7484 30.8099 99.8297 29.7219 99.8297 27.5474ZM113.031 30.3084L107.939 22.6834L112.553 17.4998L112.314 17H110.047L104.658 23.0439V17H102.232V30.8082H104.658V26.3047L106.368 24.4634L110.564 30.8082H112.791L113.029 30.3084H113.031ZM123.216 17L119.954 23.2632L116.714 17H114.646L114.347 17.4811L118.743 25.8473V30.8099H121.189V25.8473L125.583 17.4811L125.304 17H123.216ZM143.063 22.4233C143.063 18.8072 141.274 17 137.694 17H132.423V30.8082H137.694C141.274 30.8082 143.063 29.001 143.063 25.3849V22.4233ZM140.637 25.7657C140.637 27.6477 139.703 28.5879 137.833 28.5879H134.849V19.222H137.833C139.703 19.222 140.637 20.1622 140.637 22.0442V25.7674V25.7657ZM145.543 30.8082H154.771V28.5862H147.969V24.7644H154.175V22.5423H147.969V19.222H154.771V17H145.543V30.8082ZM157.117 30.8082H159.543V25.3645H165.749V23.1425H159.543V19.222H166.345V17H157.117V30.8082ZM168.514 30.8082H177.742V28.5862H170.94V24.7644H177.145V22.5423H170.94V19.222H177.742V17H168.514V30.8082ZM188.819 26.847L182.732 17H180.087V30.8082H182.513V20.9629L188.618 30.8099H191.244V17H188.818V26.847H188.819ZM197.097 17C194.937 17 193.855 18.0881 193.855 20.2625V27.5474C193.855 29.7219 194.937 30.8099 197.097 30.8099H202.507L203.681 29.8885V28.5879H197.158C196.575 28.5879 196.283 28.3006 196.283 27.7276V20.0823C196.283 19.5094 196.575 19.222 197.158 19.222H203.681V17.9215L202.507 17H197.097ZM215.253 19.222V17H206.026V30.8082H215.253V28.5862H208.452V24.7644H214.657V22.5423H208.452V19.222H215.253ZM89.4955 40.1316H91.3623V45.1418H92.4199V40.1316H94.2867V39.171H89.4955V40.1316ZM97.2618 45.1435H101.252V44.1829H98.3109V42.5304H100.994V41.5699H98.3109V40.1333H101.252V39.1727H97.2618V45.1435ZM105.689 39.171C104.754 39.171 104.286 39.642 104.286 40.5821V43.7324C104.286 44.6726 104.754 45.1435 105.689 45.1435H108.028L108.535 44.7457V44.1829H105.714C105.462 44.1829 105.335 44.0588 105.335 43.8106V40.5039C105.335 40.2557 105.462 40.1316 105.714 40.1316H108.535V39.5689L108.028 39.171H105.689ZM115.166 41.5682H112.664V39.171H111.615V45.1418H112.664V42.5287H115.166V45.1418H116.215V39.171H115.166V41.5682ZM123.24 43.4298L120.608 39.1727H119.464V45.1435H120.513V40.8864L123.154 45.1435H124.289V39.1727H123.24V43.4298ZM130.859 39.171H128.889C127.955 39.171 127.487 39.642 127.487 40.5821V43.7324C127.487 44.6726 127.955 45.1435 128.889 45.1435H130.859C131.793 45.1435 132.261 44.6726 132.261 43.7324V40.5821C132.261 39.642 131.793 39.171 130.859 39.171ZM131.212 43.8106C131.212 44.0588 131.085 44.1829 130.834 44.1829H128.916C128.664 44.1829 128.538 44.0588 128.538 43.8106V40.5039C128.538 40.2557 128.664 40.1316 128.916 40.1316H130.834C131.085 40.1316 131.212 40.2557 131.212 40.5039V43.8106ZM136.507 39.171H135.458V45.1418H139.189V44.1812H136.507V39.171ZM145.496 39.171H143.526C142.592 39.171 142.124 39.642 142.124 40.5821V43.7324C142.124 44.6726 142.592 45.1435 143.526 45.1435H145.496C146.43 45.1435 146.898 44.6726 146.898 43.7324V40.5821C146.898 39.642 146.43 39.171 145.496 39.171ZM145.849 43.8106C145.849 44.0588 145.722 44.1829 145.471 44.1829H143.553C143.302 44.1829 143.175 44.0588 143.175 43.8106V40.5039C143.175 40.2557 143.302 40.1316 143.553 40.1316H145.471C145.722 40.1316 145.849 40.2557 145.849 40.5039V43.8106ZM152.34 42.5287H153.595V44.1812H151.471C151.22 44.1812 151.093 44.0571 151.093 43.8089V40.5022C151.093 40.254 151.22 40.1299 151.471 40.1299H154.474V39.5672L153.967 39.1693H151.446C150.512 39.1693 150.044 39.6403 150.044 40.5804V43.7307C150.044 44.6709 150.512 45.1418 151.446 45.1418H154.646V41.5682H152.342V42.5287H152.34ZM157.798 45.1435H158.847V39.1727H157.798V45.1435ZM162.098 45.1435H166.088V44.1829H163.147V42.5304H165.83V41.5699H163.147V40.1333H166.088V39.1727H162.098V45.1435ZM172.136 41.8198L170.391 41.473C170.197 41.4322 170.099 41.303 170.099 41.0836V40.5039C170.099 40.2557 170.226 40.1316 170.477 40.1316H172.962V39.5689L172.456 39.171H170.452C169.518 39.171 169.05 39.642 169.05 40.5821V41.0581C169.05 41.8249 169.383 42.2754 170.047 42.408L171.792 42.7633C171.986 42.8041 172.084 42.9334 172.084 43.1527V43.8106C172.084 44.0588 171.957 44.1829 171.706 44.1829H169.048V44.7457L169.555 45.1435H171.731C172.665 45.1435 173.133 44.6726 173.133 43.7324V43.1697C173.133 42.408 172.8 41.9575 172.136 41.8198Z" fill="white"/>
<defs>
<linearGradient id="paint0_linear_2010_422" x1="3.11982" y1="48.2346" x2="61.8927" y2="20.0555" gradientUnits="userSpaceOnUse">
<stop stop-color="#0466D7"/>
<stop offset="1" stop-color="#64D3FD"/>
</linearGradient>
<clipPath id="clip0_2010_422">
<rect width="80" height="50" fill="white"/>
</clipPath>
</defs>
</svg>
